<svg xmlns="http://www.w3.org/2000/svg" width="1350" height="680" viewBox="0 0 1350 680">
<style>
  text { font-family: Helvetica, Arial, sans-serif; font-size: 12px; text-anchor: middle; dominant-baseline: middle; fill: #333333; }
  .text-label { paint-order: stroke; stroke: #ffffff; stroke-width: 4px; stroke-linecap: butt; stroke-linejoin: miter; }
  .box { stroke: #2c3e50; stroke-width: 2; rx: 8; ry: 8; }
  .oval-inicio { stroke: #27ae60; stroke-width: 2; rx: 20; ry: 20; }
  .oval-fin { stroke: #27ae60; stroke-width: 2; rx: 20; ry: 20; }
  .diamond { stroke: #f39c12; stroke-width: 2; }
  .edge { stroke: #7f8c8d; stroke-width: 2; fill: none; marker-end: url(#arrow); }
  .edge-dashed { stroke: #7f8c8d; stroke-width: 2; stroke-dasharray: 5,5; fill: none; marker-end: url(#arrow); }
  .edge-no-arrow { stroke: #7f8c8d; stroke-width: 2; fill: none; }
</style>
<defs>
  <marker id="arrow" viewBox="0 0 10 10" refX="6" refY="5" markerWidth="6" markerHeight="6" orient="auto-start-reverse">
    <path d="M 0 2 L 10 5 L 0 8 z" fill="#7f8c8d"/>
  </marker>
</defs>
<rect width="100%" height="100%" fill="#ffffff"/>
<line x1="300" y1="75" x2="300" y2="145" class="edge"/>
<line x1="300" y1="195" x2="300" y2="265" class="edge"/>
<line x1="300" y1="315" x2="300" y2="385" class="edge"/>
<line x1="300" y1="435" x2="300" y2="505" class="edge"/>
<line x1="600" y1="75" x2="600" y2="145" class="edge"/>
<line x1="600" y1="195" x2="600" y2="265" class="edge"/>
<line x1="900" y1="75" x2="900" y2="145" class="edge"/>
<line x1="900" y1="195" x2="900" y2="265" class="edge"/>
<line x1="900" y1="315" x2="900" y2="385" class="edge"/>
<line x1="900" y1="435" x2="900" y2="505" class="edge"/>
<line x1="1200" y1="75" x2="1200" y2="145" class="edge"/>
<line x1="1200" y1="195" x2="1200" y2="265" class="edge"/>
<rect x="240.0" y="30" width="120" height="40" rx="20" ry="20" class="oval-inicio" fill="#A8E6CF"/>
<text x="300" y="50"><tspan x="300" y="50.0" font-weight="bold">Inicio</tspan></text>
<rect x="240.0" y="145" width="120" height="50" class="box" fill="#D1EAED"/>
<text x="300" y="170"><tspan x="300" y="170.0" font-weight="normal">Proceso 1</tspan></text>
<rect x="240.0" y="265" width="120" height="50" class="box" fill="#D1EAED"/>
<line x1="250.0" y1="265" x2="250.0" y2="315" stroke="#2c3e50" stroke-width="2"/>
<line x1="350.0" y1="265" x2="350.0" y2="315" stroke="#2c3e50" stroke-width="2"/>
<text x="300" y="290"><tspan x="300" y="290.0" font-weight="normal">Llamar a MiSub</tspan></text>
<rect x="240.0" y="385" width="120" height="50" class="box" fill="#D1EAED"/>
<text x="300" y="410"><tspan x="300" y="410.0" font-weight="normal">Proceso 2</tspan></text>
<rect x="240.0" y="510" width="120" height="40" rx="20" ry="20" class="oval-fin" fill="#FF8B94"/>
<text x="300" y="530"><tspan x="300" y="530.0" font-weight="bold">Fin</tspan></text>
<rect x="540.0" y="30" width="120" height="40" rx="20" ry="20" class="oval-fin" fill="#A8E6CF"/>
<text x="600" y="50"><tspan x="600" y="50.0" font-weight="bold">MiSub</tspan></text>
<rect x="540.0" y="145" width="120" height="50" class="box" fill="#D1EAED"/>
<text x="600" y="170"><tspan x="600" y="170.0" font-weight="normal">Proceso Sub</tspan></text>
<rect x="540.0" y="270" width="120" height="40" rx="20" ry="20" class="oval-fin" fill="#FF8B94"/>
<text x="600" y="290"><tspan x="600" y="290.0" font-weight="bold">Retorno</tspan></text>
<rect x="840.0" y="30" width="120" height="40" rx="20" ry="20" class="oval-inicio" fill="#A8E6CF"/>
<text x="900" y="50"><tspan x="900" y="50.0" font-weight="bold">Inicio</tspan></text>
<rect x="840.0" y="145" width="120" height="50" class="box" fill="#D1EAED"/>
<text x="900" y="170"><tspan x="900" y="170.0" font-weight="normal">Proceso 1</tspan></text>
<rect x="840.0" y="265" width="120" height="50" class="box" fill="#D1EAED"/>
<line x1="850.0" y1="265" x2="850.0" y2="315" stroke="#2c3e50" stroke-width="2"/>
<line x1="950.0" y1="265" x2="950.0" y2="315" stroke="#2c3e50" stroke-width="2"/>
<text x="900" y="290"><tspan x="900" y="290.0" font-weight="normal">Llamar a MiSub</tspan></text>
<rect x="840.0" y="385" width="120" height="50" class="box" fill="#D1EAED"/>
<text x="900" y="410"><tspan x="900" y="410.0" font-weight="normal">Proceso 2</tspan></text>
<rect x="840.0" y="510" width="120" height="40" rx="20" ry="20" class="oval-fin" fill="#FF8B94"/>
<text x="900" y="530"><tspan x="900" y="530.0" font-weight="bold">Fin</tspan></text>
<rect x="1140.0" y="30" width="120" height="40" rx="20" ry="20" class="oval-fin" fill="#A8E6CF"/>
<text x="1200" y="50"><tspan x="1200" y="50.0" font-weight="bold">MiSub</tspan></text>
<rect x="1140.0" y="145" width="120" height="50" class="box" fill="#D1EAED"/>
<text x="1200" y="170"><tspan x="1200" y="170.0" font-weight="normal">Proceso Sub</tspan></text>
<rect x="1140.0" y="270" width="120" height="40" rx="20" ry="20" class="oval-fin" fill="#FF8B94"/>
<text x="1200" y="290"><tspan x="1200" y="290.0" font-weight="bold">Retorno</tspan></text>
</svg>